<?xml version="1.0" encoding="UTF-8"?>
<svg id="Layer_1" xmlns="http://www.w3.org/2000/svg" version="1.1" viewBox="0 0 980 980">
  <!-- Generator: Adobe Illustrator 29.8.2, SVG Export Plug-In . SVG Version: 2.1.1 Build 3)  -->
  <path d="M81.61,806.57l814.13-.29c31.63,3.46,31.65,47.25,0,50.72H84.25c-30.62-2.65-32.07-44.48-2.63-50.43Z"/>
  <rect x="431.55" y="162.43" width="116.89" height="216.25"/>
  <path d="M754.96,795.6h-29.22c.78-82.64-43.2-160.93-113.08-203.99-77.66-47.86-176.58-45.91-252.51,4.48-65.29,43.33-107.7,120.5-105.87,199.51h-29.22c-.65-105.7,63.47-203.83,160.07-245.64,137.77-59.63,296.33,8.18,350.83,146.3,12.51,31.71,18.16,65.29,19.01,99.35Z"/>
  <path d="M863.08,795.6h-96.92c-2.94-5.39-1.03-13.54-1.47-19.96-2.76-39.89-14.62-78.68-33.04-113.89l70.39-41.66c8.01-5.15,14.85-4.91,20.32,3.38s12.41,26.72,16.12,36.48c16.27,42.72,25.03,89.83,24.6,135.64Z"/>
  <path d="M214.33,795.6h-97.41c-.21-54.84,11.64-113.87,36.18-163.03,5-10.01,9.54-21.27,22.93-13.47l72.32,42.65c-4.87,10.89-10.69,21.41-15.01,32.55-12.44,32.07-18.61,66.88-19.01,101.29Z"/>
  <path d="M632.22,557.89l43.41-75.89c8.44-10.75,17.71-2.52,26.05,3.03,34.97,23.28,73.6,62.18,96.34,97.5,5.57,8.65,12.89,17.41,2.06,25.87l-74.79,43.01c-23.22-37.83-54.67-71-93.08-93.53Z"/>
  <path d="M484.15,517.98c-30.43.18-61.38,6.26-89.86,16.81-12.71,4.71-24.54,11.27-37.11,16.23l-42.9-74.06c-7.22-14.44,11.22-20.31,21.46-25.08,37.51-17.49,93.89-32.52,135.31-33.29,2.57-.05,6.1,1.05,8.19,2.51,1.29.9,4.91,5.75,4.91,6.78v90.1Z"/>
  <path d="M255.22,651.43l-76.86-44.4c-11.31-9.42,4.4-25.96,10.82-34.81,21.85-30.16,63.4-74.09,95.94-92.06,5.43-3,11.59-5.39,16.92-.7l44.64,77.84c-10.83,8-22.17,15.32-32.48,24.02-22.99,19.41-44.58,43.78-58.97,70.11Z"/>
  <path d="M495.84,517.98v-91.08c0-3.07,7.9-8.02,11.18-8.12,10.83-.32,27.77,2.22,38.83,3.89,33.78,5.1,71.61,16.25,102.31,31.15,5.28,2.56,15.32,6.35,17.68,11.55,3.1,6.85.68,9.39-2.27,15.27-11.65,23.2-27.64,45.45-39.29,68.83l-2.27,2.49c-37.89-21.7-82.33-33.73-126.15-33.99Z"/>
  <path d="M539.68,795.6c2.43-10.01,3.58-20.4,2.97-30.73-2.63-44.42-43.83-72.87-42.43-118.32-15.91,11.6-24.34,33.38-28.85,52-6.19,25.53-7.7,52.68-2.81,78.54-11.75-6.76-21.39-15.25-29.2-26.3-1.36,15.49,1.47,30.36,6.81,44.81h-24.84c-26.14-34.45-14.66-80.46,2.71-116.13,2.32-4.77,4.99-10.6,8.49-14.4v17.05c0,8.9,6.96,27.13,12.24,34.51.71,1,5.22,6.96,6.26,5.91-1.86-15.61-.18-33.32,2.11-49.02,5.77-39.49,23.79-84.07,61.2-102.93-3.94,25.94,6.19,51.44,16.4,74.69,17.57,40.01,54.56,94.86,39.83,139.82-1.16,3.53-2.68,7.61-5.07,10.51h-25.81Z"/>
  <path d="M425.47,103.26h129.05c27.78,5.3,26.99,44.99-1.8,48.35l-126.28-.15c-27.92-4.28-28.49-42.82-.97-48.2Z"/>
  <path d="M578.63,418.62c-10.68-2.87-21.8-5.13-32.76-6.68s-29.04-4.26-39.71-3.95c-5.32.15-13.02,4.06-15.68,8.7-5.41-4.04-10.23-8.67-17.57-8.82-10.77-.22-27.67,2.51-38.76,4.09s-21.35,3.56-31.75,6.29l-2-1.14c.74-15.03,8.48-25.91,23.97-27.59,41.79,2.48,88.22-3.71,129.47-.16,15.65,1.35,26.86,13.32,24.79,29.26Z"/>
</svg>